<?xml version="1.0" encoding="utf-8"?>
<!-- Generator: Adobe Illustrator 25.4.1, SVG Export Plug-In . SVG Version: 6.00 Build 0)  -->
<svg version="1.1" xmlns="http://www.w3.org/2000/svg" xmlns:xlink="http://www.w3.org/1999/xlink" x="0px" y="0px"
	 viewBox="0 0 1920 400" style="enable-background:new 0 0 1920 400;" xml:space="preserve">
<style type="text/css">
	.st0{fill:#E9C381;}
	.st1{fill:#E2BB7D;}
	.st2{fill:#E0827E;}
	.st3{fill:#7FA5DD;}
</style>
<g id="world">
	<path class="st0" d="M0,70.33c0,0,290.67-56,482.67-10.67S1012,89,1012,89s569.33-50.52,673.33,2.74s234.67,0,234.67,0V400H0V70.33
		z"/>
	<path class="st0" d="M284,438.33"/>
</g>
<g id="shadow">
	
		<ellipse transform="matrix(0.0757 -0.9971 0.9971 0.0757 169.0475 582.3743)" class="st1" cx="398.67" cy="200" rx="86" ry="298.67"/>
	
		<ellipse transform="matrix(0.9969 -0.0783 0.0783 0.9969 -13.0377 119.8965)" class="st1" cx="1521.82" cy="226.14" rx="189.84" ry="86"/>
</g>
<g id="l">
	<path class="st2" d="M706.36,264.06c0,0-4.6-28.34,0-36.77c4.6-8.43,16.85,32.12,16.85,32.12s18.38,0.05,28.34,4.64
		s-19.15,15.32-19.15,15.32s9.96,7.66,13.79,18.38c3.83,10.72-26.04,0-26.04,0s-14.55,38.3-19.15,22.98
		c-4.6-15.32,4.6-32.94,4.6-32.94s-53.62-13.79-39.06-17.62C681.08,266.36,706.36,264.06,706.36,264.06z"/>
</g>
<g id="Layer_4">
	<path class="st3" d="M1283.64,163.65c0,0,9.77-14.05,15.7-15.08c5.93-1.03-5.17,22.07-5.17,22.07s9.3,9.72,12.39,16.86
		c3.09,7.14-16.25-3.82-16.25-3.82s1.78,8.4-0.86,14.82c-2.64,6.42-13.2-13.74-13.2-13.74s-23.73,8.03-19.52-0.68
		c4.21-8.71,16.39-11.09,16.39-11.09s-21.3-33.94-12.28-27.84C1269.85,151.26,1283.64,163.65,1283.64,163.65z"/>
</g>
</svg>
