<?xml version="1.0" encoding="utf-8"?>
<!-- Generator: Adobe Illustrator 25.4.1, SVG Export Plug-In . SVG Version: 6.00 Build 0)  -->
<svg version="1.1" xmlns="http://www.w3.org/2000/svg" xmlns:xlink="http://www.w3.org/1999/xlink" x="0px" y="0px"
	 viewBox="0 0 300 300" style="enable-background:new 0 0 300 300;" xml:space="preserve">
<style type="text/css">
	.st0{fill:#FECFFF;}
	.st1{fill:#FFFFFF;}
</style>
<g id="head">
	<g>
		<path class="st0" d="M150,38.78c-37.11,0-68.52,32.87-78.99,78.14C67.1,133.84,79.95,150,97.31,150h105.38
			c17.36,0,30.22-16.16,26.3-33.08C218.52,71.65,187.11,38.78,150,38.78z"/>
	</g>
</g>
<g id="Eye_x5F_left">
	<g>
		<circle class="st1" cx="113.13" cy="110.74" r="10.72"/>
	</g>
	<g id="Black">
		<g>
			<circle cx="115.11" cy="113.46" r="2.74"/>
		</g>
		<circle class="st1" cx="116.69" cy="115.38" r="0.87"/>
		<circle class="st1" cx="116.79" cy="113.63" r="0.34"/>
	</g>
</g>
<g id="Eye_x5F_right">
	<g>
		<circle class="st1" cx="188.56" cy="110.74" r="10.72"/>
	</g>
	<g>
		<circle cx="184.57" cy="113.46" r="2.74"/>
	</g>
	<circle class="st1" cx="187.03" cy="114.51" r="0.87"/>
	<circle class="st1" cx="185.85" cy="112.98" r="0.3"/>
	<circle class="st1" cx="173.33" cy="113.63" r="0.34"/>
</g>
<g id="foot">
	<g>
		<path class="st0" d="M102.4,226.83c-0.59,0-1.19-0.13-1.76-0.41c-1.98-0.97-2.8-3.37-1.83-5.35c3.46-7.06,11.62-27.52,7.93-37.35
			c-5.4-14.41,3.47-48.33,4.5-52.15c0.57-2.13,2.77-3.4,4.9-2.82s3.4,2.77,2.82,4.9c-2.61,9.7-8.55,37.08-4.73,47.26
			c5.55,14.81-6.81,40.77-8.24,43.68C105.3,226.01,103.88,226.83,102.4,226.83z"/>
	</g>
	<g>
		<path class="st0" d="M138.9,226.83c-1.83,0-3.49-1.27-3.9-3.13c-0.31-1.41-7.44-34.53,9.95-44.82c6.96-4.12,5.78-29.1,2.72-45.53
			c-0.4-2.17,1.03-4.26,3.2-4.67c2.17-0.41,4.26,1.03,4.67,3.2c1.41,7.52,7.69,45.47-6.51,53.88c-10.3,6.1-7.98,28.2-6.22,36.2
			c0.48,2.16-0.89,4.29-3.04,4.77C139.47,226.8,139.18,226.83,138.9,226.83z"/>
	</g>
	<g>
		<path class="st0" d="M204.36,225.55c-0.7,0-1.41-0.18-2.06-0.57c-2.57-1.55-25.1-15.55-26-30.94c-0.23-3.93,0.89-9.71,7.56-14.88
			c6.61-5.13,5.81-29.91,3.12-45.88c-0.37-2.18,1.1-4.24,3.28-4.61c2.18-0.37,4.24,1.1,4.61,3.28c1.21,7.21,6.63,43.65-6.11,53.53
			c-3.18,2.47-4.65,5.11-4.47,8.08c0.55,9.52,16.17,20.96,22.15,24.57c1.89,1.14,2.5,3.6,1.36,5.49
			C207.03,224.86,205.71,225.55,204.36,225.55z"/>
	</g>
</g>
</svg>
